<svg width="94" height="17" viewBox="0 0 94 17" fill="none" xmlns="http://www.w3.org/2000/svg">
<path d="M9.4 16V10.08H3.88V16H0.46V1.84H3.88V7.2H9.4V1.84H12.82V16H9.4ZM23.8134 9.88C23.8134 9.36 23.6468 8.91333 23.3134 8.54C22.9934 8.16667 22.5068 7.98 21.8534 7.98C21.5334 7.98 21.2401 8.03333 20.9734 8.14C20.7068 8.23333 20.4734 8.36667 20.2734 8.54C20.0734 8.71333 19.9134 8.92 19.7934 9.16C19.6734 9.38667 19.6068 9.62667 19.5934 9.88H23.8134ZM26.8334 11.14C26.8334 11.2733 26.8334 11.4067 26.8334 11.54C26.8334 11.6733 26.8268 11.8 26.8134 11.92H19.5934C19.6201 12.2 19.7001 12.4533 19.8334 12.68C19.9801 12.9067 20.1601 13.1067 20.3734 13.28C20.6001 13.44 20.8468 13.5667 21.1134 13.66C21.3934 13.7533 21.6801 13.8 21.9734 13.8C22.4934 13.8 22.9334 13.7067 23.2934 13.52C23.6534 13.32 23.9468 13.0667 24.1734 12.76L26.4534 14.2C25.9868 14.88 25.3668 15.4067 24.5934 15.78C23.8334 16.14 22.9468 16.32 21.9334 16.32C21.1868 16.32 20.4801 16.2067 19.8134 15.98C19.1468 15.74 18.5601 15.4 18.0534 14.96C17.5601 14.5067 17.1668 13.9533 16.8734 13.3C16.5934 12.6467 16.4534 11.9 16.4534 11.06C16.4534 10.2467 16.5934 9.51333 16.8734 8.86C17.1534 8.19333 17.5334 7.63333 18.0134 7.18C18.4934 6.71333 19.0601 6.35333 19.7134 6.1C20.3668 5.84667 21.0734 5.72 21.8334 5.72C22.5668 5.72 23.2401 5.84667 23.8534 6.1C24.4668 6.34 24.9934 6.69333 25.4334 7.16C25.8734 7.62667 26.2134 8.19333 26.4534 8.86C26.7068 9.52667 26.8334 10.2867 26.8334 11.14ZM30.3075 16V0.879999H33.6275V16H30.3075ZM43.4845 8.98C43.2179 8.72667 42.9045 8.51333 42.5445 8.34C42.1845 8.16667 41.8045 8.08 41.4045 8.08C41.0979 8.08 40.8112 8.14 40.5445 8.26C40.2912 8.38 40.1645 8.58667 40.1645 8.88C40.1645 9.16 40.3045 9.36 40.5845 9.48C40.8779 9.6 41.3445 9.73333 41.9845 9.88C42.3579 9.96 42.7312 10.0733 43.1045 10.22C43.4912 10.3667 43.8379 10.56 44.1445 10.8C44.4512 11.04 44.6979 11.3333 44.8845 11.68C45.0712 12.0267 45.1645 12.44 45.1645 12.92C45.1645 13.5467 45.0379 14.08 44.7845 14.52C44.5312 14.9467 44.1979 15.2933 43.7845 15.56C43.3845 15.8267 42.9312 16.02 42.4245 16.14C41.9179 16.26 41.4112 16.32 40.9045 16.32C40.0912 16.32 39.2912 16.1933 38.5045 15.94C37.7312 15.6733 37.0845 15.2867 36.5645 14.78L38.4045 12.84C38.6979 13.16 39.0579 13.4267 39.4845 13.64C39.9112 13.8533 40.3645 13.96 40.8445 13.96C41.1112 13.96 41.3712 13.9 41.6245 13.78C41.8912 13.6467 42.0245 13.42 42.0245 13.1C42.0245 12.7933 41.8645 12.5667 41.5445 12.42C41.2245 12.2733 40.7245 12.12 40.0445 11.96C39.6979 11.88 39.3512 11.7733 39.0045 11.64C38.6579 11.5067 38.3445 11.3267 38.0645 11.1C37.7979 10.8733 37.5779 10.5933 37.4045 10.26C37.2312 9.92667 37.1445 9.52667 37.1445 9.06C37.1445 8.46 37.2712 7.95333 37.5245 7.54C37.7779 7.11333 38.1045 6.76667 38.5045 6.5C38.9045 6.23333 39.3445 6.04 39.8245 5.92C40.3179 5.78667 40.8045 5.72 41.2845 5.72C42.0312 5.72 42.7579 5.84 43.4645 6.08C44.1845 6.30667 44.7912 6.65333 45.2845 7.12L43.4845 8.98ZM52.0181 2.86C52.0181 3.11333 51.9648 3.35333 51.8581 3.58C51.7648 3.79333 51.6315 3.98 51.4581 4.14C51.2981 4.3 51.0981 4.42667 50.8581 4.52C50.6315 4.61333 50.3915 4.66 50.1381 4.66C49.6048 4.66 49.1581 4.48667 48.7981 4.14C48.4381 3.78 48.2581 3.35333 48.2581 2.86C48.2581 2.62 48.3048 2.39333 48.3981 2.18C48.4915 1.95333 48.6248 1.76 48.7981 1.6C48.9715 1.44 49.1715 1.31333 49.3981 1.22C49.6248 1.11333 49.8715 1.06 50.1381 1.06C50.3915 1.06 50.6315 1.10667 50.8581 1.2C51.0981 1.29333 51.2981 1.42 51.4581 1.58C51.6315 1.74 51.7648 1.93333 51.8581 2.16C51.9648 2.37333 52.0181 2.60667 52.0181 2.86ZM48.4981 16V6.04H51.7781V16H48.4981ZM68.7961 16L68.8761 5.98H68.8161L65.1361 16H62.7361L59.1561 5.98H59.0961L59.1761 16H55.9561V1.84H60.8161L64.0361 10.92H64.1161L67.1961 1.84H72.1361V16H68.7961ZM83.1377 9.88C83.1377 9.36 82.971 8.91333 82.6377 8.54C82.3177 8.16667 81.831 7.98 81.1777 7.98C80.8577 7.98 80.5643 8.03333 80.2977 8.14C80.031 8.23333 79.7977 8.36667 79.5977 8.54C79.3977 8.71333 79.2377 8.92 79.1177 9.16C78.9977 9.38667 78.931 9.62667 78.9177 9.88H83.1377ZM86.1577 11.14C86.1577 11.2733 86.1577 11.4067 86.1577 11.54C86.1577 11.6733 86.151 11.8 86.1377 11.92H78.9177C78.9443 12.2 79.0243 12.4533 79.1577 12.68C79.3043 12.9067 79.4843 13.1067 79.6977 13.28C79.9243 13.44 80.171 13.5667 80.4377 13.66C80.7177 13.7533 81.0043 13.8 81.2977 13.8C81.8177 13.8 82.2577 13.7067 82.6177 13.52C82.9777 13.32 83.271 13.0667 83.4977 12.76L85.7777 14.2C85.311 14.88 84.691 15.4067 83.9177 15.78C83.1577 16.14 82.271 16.32 81.2577 16.32C80.511 16.32 79.8043 16.2067 79.1377 15.98C78.471 15.74 77.8843 15.4 77.3777 14.96C76.8843 14.5067 76.491 13.9533 76.1977 13.3C75.9177 12.6467 75.7777 11.9 75.7777 11.06C75.7777 10.2467 75.9177 9.51333 76.1977 8.86C76.4777 8.19333 76.8577 7.63333 77.3377 7.18C77.8177 6.71333 78.3843 6.35333 79.0377 6.1C79.691 5.84667 80.3977 5.72 81.1577 5.72C81.891 5.72 82.5643 5.84667 83.1777 6.1C83.791 6.34 84.3177 6.69333 84.7577 7.16C85.1977 7.62667 85.5377 8.19333 85.7777 8.86C86.031 9.52667 86.1577 10.2867 86.1577 11.14Z" fill="#292E30"/>
<path d="M93.3317 14.24C93.3317 14.8 93.1317 15.2667 92.7317 15.64C92.3451 16.0133 91.8784 16.2 91.3317 16.2C91.0517 16.2 90.7851 16.1467 90.5317 16.04C90.2917 15.9467 90.0784 15.8133 89.8917 15.64C89.7051 15.4667 89.5584 15.2667 89.4517 15.04C89.3451 14.8 89.2917 14.54 89.2917 14.26C89.2917 13.9933 89.3451 13.74 89.4517 13.5C89.5584 13.26 89.7051 13.0533 89.8917 12.88C90.0784 12.6933 90.2917 12.5467 90.5317 12.44C90.7851 12.3333 91.0517 12.28 91.3317 12.28C91.8784 12.28 92.3451 12.4667 92.7317 12.84C93.1317 13.2133 93.3317 13.68 93.3317 14.24Z" fill="#FF6262"/>
</svg>
